Coordinates
version=1
nRows=13
nColumns=63
inDegrees=yes

Units are S.I. units (second, meters, Newtons, ...)
If the header above contains a line with 'inDegrees', this indicates whether rotational values are in degrees (yes) or radians (no).

endheader
time	pelvis_tilt	pelvis_list	pelvis_rotation	pelvis_tx	pelvis_ty	pelvis_tz	hip_flexion_r	hip_adduction_r	hip_rotation_r	knee_angle_r	knee_angle_r_beta	ankle_angle_r	subtalar_angle_r	mtp_angle_r	hip_flexion_l	hip_adduction_l	hip_rotation_l	knee_angle_l	knee_angle_l_beta	ankle_angle_l	subtalar_angle_l	mtp_angle_l	L5_S1_Flex_Ext	L5_S1_Lat_Bending	L5_S1_axial_rotation	L4_L5_Flex_Ext	L4_L5_Lat_Bending	L4_L5_axial_rotation	L3_L4_Flex_Ext	L3_L4_Lat_Bending	L3_L4_axial_rotation	L2_L3_Flex_Ext	L2_L3_Lat_Bending	L2_L3_axial_rotation	L1_L2_Flex_Ext	L1_L2_Lat_Bending	L1_L2_axial_rotation	L1_T12_Flex_Ext	L1_T12_Lat_Bending	L1_T12_axial_rotation	Abs_r3	Abs_r2	Abs_r1	Abs_t1	Abs_t2	neck_flexion	neck_bending	neck_rotation	arm_flex_r	arm_add_r	arm_rot_r	elbow_flex_r	pro_sup_r	wrist_flex_r	wrist_dev_r	arm_flex_l	arm_add_l	arm_rot_l	elbow_flex_l	pro_sup_l	wrist_flex_l	wrist_dev_l
0.000000	9.945109	-4.352599	93.609636	0.303915	1.084675	0.367901	0.256286	3.876143	-16.768650	12.355399	0.215642	40.941075	18.553816	0.000000	-0.784543	-3.072693	8.980777	9.401965	0.164095	34.732021	-11.894735	0.000000	0.397025	0.552187	-0.324407	0.737316	0.734409	-0.344683	0.652273	1.342587	-0.344683	0.453760	1.342587	-0.283856	0.368678	1.126020	-0.263581	0.226860	0.855338	-0.243305	2.835912	6.246449	-1.804256	0.000000	0.000000	28.127473	-5.422070	0.309545	7.499751	-6.486880	62.735590	42.498326	5.167997	-3.839068	14.088920	11.492766	-0.530606	64.817704	39.806363	51.716956	1.607973	10.638900
0.016949	10.412375	-4.474421	93.961712	0.304077	1.084451	0.368504	0.523153	4.417201	-17.000538	12.342620	0.215419	41.124328	18.585469	0.000000	-0.048134	-4.095085	4.548966	10.731137	0.187294	36.088765	-6.049066	0.000000	0.394735	0.594366	-0.328088	0.733063	0.790507	-0.348593	0.648510	1.445141	-0.348593	0.451143	1.445141	-0.287077	0.366551	1.212031	-0.266571	0.225552	0.920673	-0.246066	2.819553	6.723587	-1.824725	0.000000	0.000000	28.115596	-5.135701	0.072587	7.220850	-6.609814	61.762657	42.998735	5.196984	-4.418368	14.383985	12.128896	-0.518008	66.728009	39.741863	50.586106	1.258190	9.267447
0.033898	10.768343	-4.572404	94.247574	0.304210	1.084256	0.369086	0.747244	4.821025	-17.229080	12.370894	0.215913	41.261849	18.609528	0.000000	0.570954	-4.902599	0.930307	11.844191	0.206720	37.207348	-1.238652	0.000000	0.388868	0.625877	-0.331311	0.722168	0.832416	-0.352018	0.638872	1.521756	-0.352018	0.444438	1.521756	-0.289897	0.361103	1.276287	-0.269190	0.222199	0.969483	-0.248483	2.777648	7.080040	-1.842652	0.000000	0.000000	28.085918	-4.889945	-0.132231	7.055400	-6.703075	61.086954	43.361145	5.313085	-4.816614	14.603151	12.664730	-0.519576	68.287354	39.688377	49.631193	0.956625	8.073701
0.050847	11.024212	-4.648872	94.472971	0.304315	1.084087	0.369646	0.932252	5.101596	-17.451844	12.434671	0.217026	41.358454	18.626851	0.000000	1.082544	-5.515344	-1.945492	12.758721	0.222682	38.108947	2.623297	0.000000	0.379949	0.647833	-0.334045	0.705604	0.861618	-0.354923	0.624218	1.575142	-0.354923	0.434244	1.575142	-0.292289	0.352821	1.321062	-0.271411	0.217103	1.003494	-0.250534	2.713939	7.328419	-1.857857	0.000000	0.000000	28.040981	-4.682347	-0.306850	6.989899	-6.769614	60.674373	43.600212	5.503104	-5.055010	14.754666	13.108523	-0.532955	69.528449	39.643919	48.839626	0.699524	7.046326
0.067797	11.191178	-4.706148	94.643656	0.304395	1.083942	0.370181	1.081871	5.272893	-17.666393	12.528400	0.218662	41.418957	18.638292	0.000000	1.496456	-5.953432	-4.148723	13.492317	0.235485	38.814738	5.623569	0.000000	0.368501	0.661351	-0.336257	0.684343	0.879597	-0.357273	0.605410	1.608009	-0.357273	0.421160	1.608009	-0.294225	0.342190	1.348627	-0.273209	0.210562	1.024433	-0.252193	2.632166	7.481333	-1.870162	0.000000	0.000000	27.983325	-4.510453	-0.453212	7.010840	-6.812378	60.490805	43.730594	5.753845	-5.154759	14.846779	13.468532	-0.555789	70.484004	39.606503	48.198811	0.483133	6.173988
0.084746	11.280438	-4.746555	94.765380	0.304450	1.083820	0.370689	1.199797	5.348894	-17.870295	12.646533	0.220724	41.448172	18.644707	0.000000	1.822513	-6.236973	-5.749676	14.062573	0.245438	39.345900	7.848956	0.000000	0.355048	0.667544	-0.337916	0.659360	0.887834	-0.359036	0.583308	1.623067	-0.359036	0.405784	1.623067	-0.295677	0.329698	1.361256	-0.274557	0.202874	1.034026	-0.253437	2.536073	7.551392	-1.879389	0.000000	0.000000	27.915494	-4.371806	-0.573257	7.104721	-6.834315	60.502142	43.766947	6.052113	-5.137065	14.887739	13.753014	-0.585722	71.186729	39.574142	47.696155	0.303699	5.445351
0.101695	11.303189	-4.772417	94.843895	0.304483	1.083717	0.371168	1.289723	5.343581	-18.061113	12.783520	0.223115	41.450914	18.646953	0.000000	2.070536	-6.386077	-6.818645	14.487079	0.252847	39.723608	9.386245	0.000000	0.340114	0.667527	-0.338990	0.631626	0.887812	-0.360177	0.558773	1.623026	-0.360177	0.388716	1.623026	-0.296616	0.315830	1.361222	-0.275429	0.194341	1.034000	-0.254242	2.429400	7.551204	-1.885360	0.000000	0.000000	27.840027	-4.263954	-0.668928	7.258036	-6.838376	60.674276	43.723929	6.384712	-5.023132	14.885795	13.970222	-0.620398	71.669333	39.544849	47.319065	0.157469	4.849081
0.118644	11.270628	-4.786056	94.884953	0.304495	1.083632	0.371614	1.355344	5.270931	-18.236415	12.933810	0.225738	41.431995	18.645886	0.000000	2.250346	-6.420857	-7.425920	14.783429	0.258020	39.969039	10.322227	0.000000	0.324222	0.662416	-0.339446	0.602113	0.881013	-0.360661	0.532665	1.610598	-0.360661	0.370554	1.610598	-0.297015	0.301073	1.350798	-0.275800	0.185261	1.026082	-0.254584	2.315888	7.493380	-1.887896	0.000000	0.000000	27.759467	-4.184440	-0.742165	7.457282	-6.827507	60.973098	43.616196	6.738445	-4.834164	14.849195	14.128415	-0.657463	71.964527	39.516639	47.054948	0.040689	4.373843
0.135593	11.193952	-4.789797	94.894304	0.304489	1.083562	0.372027	1.400353	5.144925	-18.393766	13.091855	0.228496	41.396232	18.642362	0.000000	2.371765	-6.361421	-7.641792	14.969214	0.261262	40.103370	10.743691	0.000000	0.307897	0.653324	-0.339252	0.571796	0.868920	-0.360455	0.505845	1.588491	-0.360455	0.351896	1.588491	-0.296846	0.285914	1.332258	-0.275642	0.175933	1.011998	-0.254439	2.199281	7.390528	-1.886819	0.000000	0.000000	27.676355	-4.130811	-0.794909	7.688955	-6.804658	61.364500	43.458407	7.100118	-4.591364	14.786187	14.235847	-0.694559	72.105021	39.487524	46.891212	-0.050396	4.008302
0.152542	11.084357	-4.785961	94.877701	0.304466	1.083506	0.372404	1.428446	4.979541	-18.530730	13.252105	0.231293	41.348438	18.637236	0.000000	2.444614	-6.227882	-7.536554	15.062027	0.262882	40.147779	10.737427	0.000000	0.291663	0.641366	-0.338377	0.541647	0.853016	-0.359525	0.479173	1.559417	-0.359525	0.333342	1.559417	-0.296080	0.270838	1.307873	-0.274931	0.166656	0.993476	-0.253783	2.083319	7.255258	-1.881950	0.000000	0.000000	27.593234	-4.100611	-0.829103	7.939550	-6.772776	61.814373	43.265216	7.456535	-4.315936	14.705022	14.300775	-0.729331	72.123525	39.455518	46.815262	-0.119538	3.741123
0.169492	10.953041	-4.776873	94.840896	0.304427	1.083461	0.372742	1.443316	4.788760	-18.644874	13.409010	0.234031	41.293427	18.631365	0.000000	2.478716	-6.040349	-7.180497	15.079459	0.263186	40.123441	10.390223	0.000000	0.276042	0.627657	-0.336788	0.512638	0.834784	-0.357837	0.453510	1.526085	-0.357837	0.315489	1.526085	-0.294689	0.256333	1.279918	-0.273640	0.157731	0.972240	-0.252591	1.971744	7.100180	-1.873112	0.000000	0.000000	27.512643	-4.091385	-0.846686	8.195563	-6.734812	62.288609	43.051283	7.794499	-4.029084	14.613946	14.331455	-0.759423	72.052749	39.418635	46.814507	-0.170491	3.560970
0.186441	10.821442	-4.752258	94.793504	0.304393	1.083463	0.373027	1.431898	4.607705	-18.701785	13.526810	0.236087	41.240122	18.630262	0.000000	2.476685	-5.846294	-6.757074	15.043740	0.262563	40.067903	9.925777	0.000000	0.260322	0.614259	-0.335699	0.483445	0.816964	-0.356680	0.427684	1.493509	-0.356680	0.297522	1.493509	-0.293737	0.241735	1.252597	-0.272755	0.148748	0.951487	-0.251774	1.859457	6.948618	-1.867057	0.000000	0.000000	27.451319	-4.062406	-0.869157	8.461147	-6.675974	62.816734	42.773504	8.150432	-3.670033	14.468448	14.332624	-0.778539	71.948051	39.370044	46.762466	-0.186847	3.478311
0.203390	10.697709	-4.753541	94.725711	0.304316	1.083443	0.373217	1.449089	4.429148	-18.720418	13.647117	0.238187	41.204720	18.631627	0.000000	2.448608	-5.605899	-5.901687	14.912534	0.260273	39.891156	8.837385	0.000000	0.251533	0.602549	-0.330487	0.467122	0.801390	-0.351142	0.413244	1.465037	-0.351142	0.287477	1.465037	-0.289176	0.233574	1.228717	-0.268520	0.143726	0.933348	-0.247865	1.796677	6.816152	-1.838067	0.000000	0.000000	27.405660	-4.046712	-0.834285	8.660214	-6.644060	63.208065	42.572132	8.282506	-3.431056	14.337579	14.312420	-0.773912	71.828185	39.303888	46.896145	-0.207113	3.464720
